# xmcd CD database file
#
# Track frame offsets:
#	150
#	23005
#	49389
#	75567
#	100255
#	121053
#	154224
#	177755
#	201421
#
# Disc length: 2978 seconds
#
# Revision: 2
# Processed by: cddbd v1.4PL0 Copyright (c) Steve Scherf et al.
# Submitted via: CDex 1.50beta10
#
DISCID=6d0ba009
DTITLE=Steve Kuhn - Waltz Blue Side
DYEAR=2002
DGENRE=Jazz
TTITLE0=When I grow too old to dream
TTITLE1=Charade
TTITLE2=Remember
TTITLE3=Years later
TTITLE4=Once upon a summertime
TTITLE5=I'll take romance
TTITLE6=I'm glad there is you
TTITLE7=Pastorale
TTITLE8=My buddy
EXTD=YEAR: 2002
EXTT0=
EXTT1=
EXTT2=
EXTT3=
EXTT4=
EXTT5=
EXTT6=
EXTT7=
EXTT8=
PLAYORDER=
